<svg xmlns="http://www.w3.org/2000/svg" viewBox="0 0 32 32" fill="currentColor" aria-hidden="true">
  <path d="M16 3C8.82 3 3 8.82 3 16c0 2.52.72 4.88 1.97 6.88L3 30l7.35-1.93A12.92 12.92 0 0 0 16 29c7.18 0 13-5.82 13-13S23.18 3 16 3zm0 23.55c-1.86 0-3.68-.49-5.27-1.42l-.38-.22-4.37 1.15 1.18-4.26-.25-.4A10.43 10.43 0 0 1 5.45 16c0-5.82 4.73-10.55 10.55-10.55 5.82 0 10.55 4.73 10.55 10.55 0 5.82-4.73 10.55-10.55 10.55zm5.81-7.91c-.32-.16-1.92-.95-2.22-1.06-.3-.11-.51-.16-.73.16-.21.32-.83 1.06-1.02 1.27-.19.22-.38.24-.7.08-.32-.16-1.35-.5-2.57-1.58-.95-.84-1.59-1.89-1.78-2.21-.19-.32-.02-.49.14-.65.14-.14.32-.38.49-.57.16-.19.22-.32.32-.54.11-.22.05-.41-.03-.57-.08-.16-.73-1.76-1-2.42-.27-.64-.54-.56-.73-.57h-.62c-.22 0-.57.08-.86.41-.3.32-1.14 1.11-1.14 2.71 0 1.59 1.16 3.14 1.32 3.35.16.22 2.27 3.46 5.5 4.85.77.33 1.37.53 1.84.67.77.24 1.48.21 2.03.13.62-.09 1.92-.78 2.19-1.52.27-.76.27-1.4.19-1.54-.09-.13-.3-.21-.62-.38z"/>
</svg>
